<svg t="1709040944856" class="icon" viewBox="0 0 1024 1024" version="1.1" xmlns="http://www.w3.org/2000/svg" p-id="9688" width="32" height="32"><path d="M170.112 171.2h42.688v42.688h-42.688zM213.312 170.688H256v42.688h-42.688zM256 170.688h42.688v42.688H256zM298.688 170.688h42.688v42.688h-42.688z" fill="#FFFFFF" p-id="9689"></path><path d="M341.312 170.688H384v42.688h-42.688zM384 170.688h42.688v42.688H384zM426.688 170.688h42.688v42.688h-42.688z" fill="#FFFFFF" p-id="9690"></path><path d="M469.312 170.688H512v42.688h-42.688zM127.488 213.888h42.688v42.688h-42.688zM170.688 213.312h42.688V256h-42.688z" fill="#FFFFFF" p-id="9691"></path><path d="M213.312 213.312H256V256h-42.688zM256 213.312h42.688V256H256zM298.688 213.312h42.688V256h-42.688z" fill="#FFFFFF" p-id="9692"></path><path d="M341.312 213.312H384V256h-42.688zM84.8 256.512h42.688v42.688h-42.688zM128 256h42.688v42.688H128zM170.688 256h42.688v42.688h-42.688z" fill="#FFFFFF" p-id="9693"></path><path d="M213.312 256H256v42.688h-42.688zM256 256h42.688v42.688H256zM298.688 256h42.688v42.688h-42.688zM85.312 298.688H128v42.688h-42.688zM128 298.688h42.688v42.688H128zM170.688 298.688h42.688v42.688h-42.688z" fill="#FFFFFF" p-id="9694"></path><path d="M213.312 298.688H256v42.688h-42.688zM256 298.688h42.688v42.688H256zM512 170.688h42.688v42.688H512zM554.688 170.688h42.688v42.688h-42.688z" fill="#FFFFFF" p-id="9695"></path><path d="M597.312 170.688H640v42.624h-42.688zM640 213.312h42.688V256H640zM682.688 213.312h42.624V256h-42.624zM640 170.688h42.688v42.624H640zM682.688 170.688h42.688v42.624h-42.688z" fill="#FFFFFF" p-id="9696"></path><path d="M725.312 170.688H768v42.624h-42.688zM298.112 43.2h42.688v42.688h-42.688zM340.8 43.2h42.688v42.688h-42.688zM384 42.688h42.688v42.688H384zM426.688 42.688h42.688v42.688h-42.688z" fill="#FFFFFF" p-id="9697"></path><path d="M469.312 42.688H512v42.688h-42.688zM255.488 85.888h42.688v42.688h-42.688zM298.688 85.312h42.688V128h-42.688z" fill="#FFFFFF" p-id="9698"></path><path d="M341.312 85.312H384V128h-42.688zM384 85.312h42.688V128H384zM426.688 85.312h42.688V128h-42.688z" fill="#FFFFFF" p-id="9699"></path><path d="M469.312 85.312H512V128h-42.688zM512 42.688h42.688v42.688H512z" fill="#FFFFFF" p-id="9700"></path><path d="M512 85.312h42.688V128H512zM554.688 42.688h42.688v42.688h-42.688z" fill="#FFFFFF" p-id="9701"></path><path d="M554.688 85.312h42.688V128h-42.688z" fill="#FFFFFF" p-id="9702"></path><path d="M597.312 42.688H640v42.688h-42.688z" fill="#FFFFFF" p-id="9703"></path><path d="M597.312 85.312H640V128h-42.688zM640 42.688h42.688v42.688H640z" fill="#FFFFFF" p-id="9704"></path><path d="M640 85.312h42.688V128H640zM682.688 42.688h42.688v42.688h-42.688z" fill="#FFFFFF" p-id="9705"></path><path d="M682.688 85.312h42.688V128h-42.688z" fill="#FFFFFF" p-id="9706"></path><path d="M725.312 85.312H768V128h-42.688zM725.312 256H768v42.688h-42.688zM725.312 298.688H768v42.688h-42.688zM768 213.312h42.688V256H768zM768 256h42.688v42.688H768zM768 298.688h42.688v42.688H768zM810.688 170.688h42.688v42.688h-42.688z" fill="#FFFFFF" p-id="9707"></path><path d="M810.688 213.312h42.688V256h-42.688zM810.688 256h42.688v42.688h-42.688zM810.688 298.688h42.688v42.688h-42.688z" fill="#FFFFFF" p-id="9708"></path><path d="M853.312 213.312H896V256h-42.688zM853.312 256H896v42.688h-42.688zM853.312 298.688H896v42.688h-42.688zM896 256h42.688v42.688H896zM896 298.688h42.688v42.688H896zM768 640h42.688v42.688H768zM725.312 682.688H768v42.688h-42.688zM768 682.688h42.688v42.688H768z" fill="#FFFFFF" p-id="9709"></path><path d="M682.688 725.312h42.688V768h-42.688z" fill="#FFFFFF" p-id="9710"></path><path d="M725.312 725.312H768V768h-42.688zM725.312 768H768v42.688h-42.688zM768 725.312h42.688V768H768zM768 768h42.688v42.688H768zM768 810.688h42.688v42.688H768zM810.688 384h42.688v42.688h-42.688zM810.688 426.688h42.688v42.688h-42.688z" fill="#FFFFFF" p-id="9711"></path><path d="M810.688 469.312h42.688V512h-42.688zM810.688 512h42.688v42.688h-42.688zM810.688 554.688h42.688v42.688h-42.688z" fill="#FFFFFF" p-id="9712"></path><path d="M810.688 597.312h42.688V640h-42.688zM810.688 640h42.688v42.688h-42.688zM810.688 682.688h42.688v42.688h-42.688z" fill="#FFFFFF" p-id="9713"></path><path d="M810.688 725.312h42.688V768h-42.688zM810.688 768h42.688v42.688h-42.688zM810.688 810.688h42.688v42.688h-42.688zM853.312 384H896v42.688h-42.688zM853.312 426.688H896v42.688h-42.688z" fill="#FFFFFF" p-id="9714"></path><path d="M853.312 469.312H896V512h-42.688zM896 384h42.688v42.688H896zM896 426.688h42.688v42.688H896z" fill="#FFFFFF" p-id="9715"></path><path d="M896 469.312h42.688V512H896zM853.312 512H896v42.688h-42.688zM896 512h42.688v42.688H896zM938.688 384h42.688v42.688h-42.688zM938.688 426.688h42.688v42.688h-42.688z" fill="#FFFFFF" p-id="9716"></path><path d="M938.688 469.312h42.688V512h-42.688zM938.688 512h42.688v42.688h-42.688zM853.312 554.688H896v42.688h-42.688z" fill="#FFFFFF" p-id="9717"></path><path d="M853.312 597.312H896V640h-42.688zM896 554.688h42.688v42.688H896z" fill="#FFFFFF" p-id="9718"></path><path d="M896 597.312h42.688V640H896zM853.312 640H896v42.688h-42.688zM896 640h42.688v42.688H896zM938.688 554.688h42.688v42.688h-42.688z" fill="#FFFFFF" p-id="9719"></path><path d="M938.688 597.312h42.688V640h-42.688z" fill="#FFFFFF" p-id="9720"></path><path d="M938.688 640h42.688v42.688h-42.688z" fill="#E6E6E6" p-id="9721"></path><path d="M853.312 682.688H896v42.688h-42.688z" fill="#FFFFFF" p-id="9722"></path><path d="M896 682.688h42.688v42.688H896z" fill="#E6E6E6" p-id="9723"></path><path d="M853.312 725.312H896V768h-42.688z" fill="#FFFFFF" p-id="9724"></path><path d="M853.312 768H896v42.688h-42.688zM896 725.312h42.688V768H896z" fill="#E6E6E6" p-id="9725"></path><path d="M42.688 384h42.688v42.688H42.688z" fill="#FFFFFF" p-id="9726"></path><path d="M85.312 384H128v42.688h-42.688zM128 384h42.688v42.688H128zM170.688 384h42.688v42.688h-42.688zM42.688 426.688h42.688v42.688H42.688z" fill="#FFFFFF" p-id="9727"></path><path d="M85.312 426.688H128v42.688h-42.688zM128 426.688h42.688v42.688H128zM170.688 426.688h42.688v42.688h-42.688z" fill="#FFFFFF" p-id="9728"></path><path d="M42.688 469.312h42.688V512H42.688zM42.688 512h42.688v42.688H42.688zM42.688 554.688h42.688v42.688H42.688zM128 554.688h42.688v42.688H128z" fill="#FFFFFF" p-id="9729"></path><path d="M42.688 597.312h42.688V640H42.688zM128 597.312h42.688V640H128z" fill="#FFFFFF" p-id="9730"></path><path d="M42.688 640h42.688v42.688H42.688z" fill="#E6E6E6" p-id="9731"></path><path d="M85.312 640H128v42.688h-42.688zM128 640h42.688v42.688H128zM170.688 640h42.688v42.688h-42.688z" fill="#FFFFFF" p-id="9732"></path><path d="M213.312 640H256v42.688h-42.688z" fill="#FFFFFF" p-id="9733"></path><path d="M85.312 682.688H128v42.688h-42.688z" fill="#E6E6E6" p-id="9734"></path><path d="M128 682.688h42.688v42.688H128zM170.688 682.688h42.688v42.688h-42.688z" fill="#FFFFFF" p-id="9735"></path><path d="M213.312 682.688H256v42.688h-42.688zM256 682.688h42.688v42.688H256z" fill="#FFFFFF" p-id="9736"></path><path d="M85.312 725.312H128V768h-42.688z" fill="#E6E6E6" p-id="9737"></path><path d="M128 725.312h42.688V768H128zM170.688 725.312h42.688V768h-42.688z" fill="#FFFFFF" p-id="9738"></path><path d="M128 768h42.688v42.688H128z" fill="#E6E6E6" p-id="9739"></path><path d="M426.688 810.688h42.688v42.688h-42.688z" fill="#FFFFFF" p-id="9740"></path><path d="M469.312 810.688H512v42.688h-42.688zM213.312 768H256v42.688h-42.688zM256 768h42.688v42.688H256zM298.688 768h42.688v42.688h-42.688zM170.688 810.688h42.688v42.688h-42.688z" fill="#FFFFFF" p-id="9741"></path><path d="M213.312 810.688H256v42.688h-42.688zM256 810.688h42.688v42.688H256zM298.688 810.688h42.688v42.688h-42.688z" fill="#FFFFFF" p-id="9742"></path><path d="M341.312 810.688H384v42.688h-42.688zM554.688 810.688h42.688v42.688h-42.688z" fill="#FFFFFF" p-id="9743"></path><path d="M597.312 810.688H640v42.688h-42.688z" fill="#FFFFFF" p-id="9744"></path><path d="M170.688 853.312h42.688V896h-42.688z" fill="#E6E6E6" p-id="9745"></path><path d="M213.312 853.312H256V896h-42.688z" fill="#E6E6E6" p-id="9746"></path><path d="M256 853.312h42.688V896H256zM298.688 853.312h42.688V896h-42.688z" fill="#FFFFFF" p-id="9747"></path><path d="M341.312 853.312H384V896h-42.688zM384 853.312h42.688V896H384zM512 853.312h42.688V896H512zM554.688 853.312h42.688V896h-42.688z" fill="#FFFFFF" p-id="9748"></path><path d="M597.312 853.312H640V896h-42.688z" fill="#FFFFFF" p-id="9749"></path><path d="M256 896h42.688v42.688H256z" fill="#E6E6E6" p-id="9750"></path><path d="M298.688 896h42.688v42.688h-42.688z" fill="#FFFFFF" p-id="9751"></path><path d="M341.312 896H384v42.688h-42.688zM384 896h42.688v42.688H384zM426.688 896h42.688v42.688h-42.688z" fill="#FFFFFF" p-id="9752"></path><path d="M469.312 896H512v42.688h-42.688z" fill="#FFFFFF" p-id="9753"></path><path d="M298.688 938.688h42.688v42.688h-42.688z" fill="#E6E6E6" p-id="9754"></path><path d="M341.312 938.688H384v42.688h-42.688zM384 938.688h42.688v42.688H384zM426.688 938.688h42.688v42.688h-42.688z" fill="#E6E6E6" p-id="9755"></path><path d="M469.312 938.688H512v42.688h-42.688z" fill="#E6E6E6" p-id="9756"></path><path d="M512 896h42.688v42.688H512z" fill="#FFFFFF" p-id="9757"></path><path d="M512 938.688h42.688v42.688H512z" fill="#E6E6E6" p-id="9758"></path><path d="M554.688 896h42.688v42.688h-42.688z" fill="#FFFFFF" p-id="9759"></path><path d="M554.688 938.688h42.688v42.688h-42.688z" fill="#E6E6E6" p-id="9760"></path><path d="M597.312 896H640v42.688h-42.688z" fill="#FFFFFF" p-id="9761"></path><path d="M597.312 938.688H640v42.688h-42.688z" fill="#E6E6E6" p-id="9762"></path><path d="M682.688 853.312h42.688V896h-42.688zM682.688 896h42.688v42.688h-42.688z" fill="#FFFFFF" p-id="9763"></path><path d="M682.688 938.688h42.688v42.688h-42.688z" fill="#E6E6E6" p-id="9764"></path><path d="M682.688 810.688h42.688v42.688h-42.688z" fill="#FFFFFF" p-id="9765"></path><path d="M725.312 853.312H768V896h-42.688z" fill="#FFFFFF" p-id="9766"></path><path d="M725.312 896H768v42.688h-42.688z" fill="#E6E6E6" p-id="9767"></path><path d="M512 810.688h42.688v42.688H512zM682.688 768h42.688v42.688h-42.688zM725.312 810.688H768v42.688h-42.688z" fill="#FFFFFF" p-id="9768"></path><path d="M853.312 810.688H896v42.688h-42.688z" fill="#E6E6E6" p-id="9769"></path><path d="M426.688 853.312h42.688V896h-42.688z" fill="#FFFFFF" p-id="9770"></path><path d="M469.312 853.312H512V896h-42.688z" fill="#FFFFFF" p-id="9771"></path><path d="M768 853.312h42.688V896H768zM810.688 853.312h42.688V896h-42.688z" fill="#E6E6E6" p-id="9772"></path><path d="M170.112 128.512h42.688v42.688h-42.688zM213.312 128H256v42.688h-42.688zM256 128h42.688v42.688H256zM298.688 128h42.688v42.688h-42.688z" fill="#FFFFFF" p-id="9773"></path><path d="M341.312 128H384v42.688h-42.688zM384 128h42.688v42.688H384zM426.688 128h42.688v42.688h-42.688z" fill="#FFFFFF" p-id="9774"></path><path d="M469.312 128H512v42.688h-42.688zM128 170.688h42.688v42.688H128zM42.688 341.312h42.688V384H42.688z" fill="#FFFFFF" p-id="9775"></path><path d="M85.312 341.312H128V384h-42.688zM128 341.312h42.688V384H128zM170.688 341.312h42.688V384h-42.688z" fill="#FFFFFF" p-id="9776"></path><path d="M213.312 341.312H256V384h-42.688zM512 128h42.688v42.688H512zM554.688 128h42.688v42.688h-42.688z" fill="#FFFFFF" p-id="9777"></path><path d="M597.312 128H640v42.688h-42.688zM640 128h42.688v42.688H640zM682.688 128h42.688v42.688h-42.688zM682.688 256h42.688v42.688h-42.688z" fill="#FFFFFF" p-id="9778"></path><path d="M725.312 128H768v42.688h-42.688zM725.312 213.312H768V256h-42.688zM768 128h42.688v42.688H768zM768 170.688h42.688v42.688H768zM768 341.312h42.688V384H768zM640 768h42.688v42.688H640zM640 810.688h42.688v42.688H640zM810.688 128h42.688v42.688h-42.688zM810.688 341.312h42.688V384h-42.688zM853.312 170.688H896v42.688h-42.688z" fill="#FFFFFF" p-id="9779"></path><path d="M853.312 341.312H896V384h-42.688zM896 341.312h42.688V384H896zM938.688 341.312h42.688V384h-42.688zM640 853.312h42.688V896H640zM640 896h42.688v42.688H640z" fill="#FFFFFF" p-id="9780"></path><path d="M640 938.688h42.688v42.688H640z" fill="#E6E6E6" p-id="9781"></path><path d="M85.312 469.312H128V512h-42.688zM128 469.312h42.688V512H128zM170.688 469.312h42.688V512h-42.688zM85.312 512H128v42.688h-42.688zM128 512h42.688v42.688H128zM170.688 512h42.688v42.688h-42.688zM85.312 554.688H128v42.688h-42.688zM170.688 554.688h42.688v42.688h-42.688z" fill="#FFFFFF" p-id="9782"></path><path d="M85.312 597.312H128V640h-42.688zM170.688 597.312h42.688V640h-42.688zM213.312 725.312H256V768h-42.688zM256 725.312h42.688V768H256zM298.688 725.312h42.688V768h-42.688zM170.688 768h42.688v42.688h-42.688zM341.312 768H384v42.688h-42.688z" fill="#FFFFFF" p-id="9783"></path><path d="M128 810.688h42.688v42.688H128z" fill="#E6E6E6" p-id="9784"></path><path d="M384 810.688h42.688v42.688H384z" fill="#FFFFFF" p-id="9785"></path><path d="M384 256h42.688v42.688H384zM426.688 256h42.688v42.688h-42.688z" fill="#FFE37C" p-id="9786"></path><path d="M469.312 256H512v42.688h-42.688zM341.312 298.688H384v42.688h-42.688zM384 298.688h42.688v42.688H384zM426.688 298.688h42.688v42.688h-42.688z" fill="#FFE37C" p-id="9787"></path><path d="M469.312 298.688H512v42.688h-42.688zM512 256h42.688v42.688H512z" fill="#FFE37C" p-id="9788"></path><path d="M512 298.688h42.688v42.688H512z" fill="#FFFFFF" p-id="9789"></path><path d="M554.688 256h42.688v42.688h-42.688z" fill="#FFE37C" p-id="9790"></path><path d="M554.688 298.688h42.688v42.688h-42.688z" fill="#FFFFFF" p-id="9791"></path><path d="M597.312 256H640v42.688h-42.688z" fill="#FFE37C" p-id="9792"></path><path d="M597.312 298.688H640v42.688h-42.688zM682.688 384h42.688v42.688h-42.688z" fill="#FFFFFF" p-id="9793"></path><path d="M682.688 426.688h42.688v42.688h-42.688z" fill="#FFE37C" p-id="9794"></path><path d="M682.688 469.312h42.688V512h-42.688zM725.312 384H768v42.688h-42.688z" fill="#FFE37C" p-id="9795"></path><path d="M725.312 426.688H768v42.688h-42.688z" fill="#FFE37C" p-id="9796"></path><path d="M725.312 469.312H768V512h-42.688zM682.688 512h42.688v42.688h-42.688z" fill="#FFE37C" p-id="9797"></path><path d="M725.312 512H768v42.688h-42.688zM682.688 554.688h42.688v42.688h-42.688z" fill="#FFE37C" p-id="9798"></path><path d="M682.688 597.312h42.688V640h-42.688z" fill="#FFE37C" p-id="9799"></path><path d="M725.312 554.688H768v42.688h-42.688z" fill="#FFE37C" p-id="9800"></path><path d="M725.312 597.312H768V640h-42.688zM682.688 640h42.688v42.688h-42.688z" fill="#F7AF00" p-id="9801"></path><path d="M256 384h42.688v42.688H256zM298.688 384h42.688v42.688h-42.688z" fill="#FFE37C" p-id="9802"></path><path d="M341.312 384H384v42.688h-42.688zM384 384h42.688v42.688H384zM426.688 384h42.688v42.688h-42.688z" fill="#FFE37C" p-id="9803"></path><path d="M469.312 384H512v42.688h-42.688zM256 426.688h42.688v42.688H256zM298.688 426.688h42.688v42.688h-42.688z" fill="#FFE37C" p-id="9804"></path><path d="M341.312 426.688H384v42.688h-42.688zM384 426.688h42.688v42.688H384zM426.688 426.688h42.688v42.688h-42.688z" fill="#FFE37C" p-id="9805"></path><path d="M469.312 426.688H512v42.688h-42.688zM298.688 469.312h42.688V512h-42.688zM384 469.312h42.688V512H384z" fill="#FFE37C" p-id="9806"></path><path d="M426.688 469.312h42.688V512h-42.688zM512 384h42.688v42.688H512zM512 426.688h42.688v42.688H512z" fill="#FFE37C" p-id="9807"></path><path d="M512 469.312h42.688V512H512zM298.688 512h42.688v42.688h-42.688zM384 512h42.688v42.688H384zM426.688 512h42.688v42.688h-42.688zM554.688 384h42.688v42.688h-42.688zM554.688 426.688h42.688v42.688h-42.688z" fill="#FFE37C" p-id="9808"></path><path d="M597.312 384H640v42.688h-42.688zM597.312 426.688H640v42.688h-42.688z" fill="#FFE37C" p-id="9809"></path><path d="M597.312 469.312H640V512h-42.688zM554.688 512h42.688v42.688h-42.688z" fill="#FFE37C" p-id="9810"></path><path d="M597.312 512H640v42.688h-42.688zM298.688 554.688h42.688v42.688h-42.688zM384 554.688h42.688v42.688H384zM426.688 554.688h42.688v42.688h-42.688z" fill="#FFE37C" p-id="9811"></path><path d="M298.688 597.312h42.688V640h-42.688zM426.688 597.312h42.688V640h-42.688zM512 554.688h42.688v42.688H512z" fill="#FFE37C" p-id="9812"></path><path d="M512 597.312h42.688V640H512z" fill="#FFE37C" p-id="9813"></path><path d="M298.688 640h42.688v42.688h-42.688z" fill="#F7AF00" p-id="9814"></path><path d="M341.312 640H384v42.688h-42.688zM384 640h42.688v42.688H384zM426.688 640h42.688v42.688h-42.688z" fill="#FFE37C" p-id="9815"></path><path d="M469.312 640H512v42.688h-42.688zM512 640h42.688v42.688H512zM597.312 554.688H640v42.688h-42.688z" fill="#FFE37C" p-id="9816"></path><path d="M597.312 597.312H640V640h-42.688zM554.688 640h42.688v42.688h-42.688z" fill="#FFE37C" p-id="9817"></path><path d="M597.312 640H640v42.688h-42.688z" fill="#FFE37C" p-id="9818"></path><path d="M341.312 682.688H384v42.688h-42.688z" fill="#F7AF00" p-id="9819"></path><path d="M384 682.688h42.688v42.688H384zM426.688 682.688h42.688v42.688h-42.688z" fill="#FFE37C" p-id="9820"></path><path d="M469.312 682.688H512v42.688h-42.688zM512 682.688h42.688v42.688H512zM554.688 682.688h42.688v42.688h-42.688z" fill="#FFE37C" p-id="9821"></path><path d="M597.312 682.688H640v42.688h-42.688z" fill="#FFE37C" p-id="9822"></path><path d="M384 725.312h42.688V768H384zM426.688 725.312h42.688V768h-42.688z" fill="#F7AF00" p-id="9823"></path><path d="M469.312 725.312H512V768h-42.688zM512 725.312h42.688V768H512zM554.688 725.312h42.688V768h-42.688z" fill="#F7AF00" p-id="9824"></path><path d="M597.312 725.312H640V768h-42.688z" fill="#F7AF00" p-id="9825"></path><path d="M298.688 341.312h42.688V384h-42.688z" fill="#FFE37C" p-id="9826"></path><path d="M341.312 341.312H384V384h-42.688zM384 341.312h42.688V384H384zM426.688 341.312h42.688V384h-42.688z" fill="#FFE37C" p-id="9827"></path><path d="M469.312 341.312H512V384h-42.688zM512 341.312h42.688V384H512zM554.688 341.312h42.688V384h-42.688z" fill="#FFE37C" p-id="9828"></path><path d="M597.312 341.312H640V384h-42.688zM640 298.688h42.688v42.688H640z" fill="#FFE37C" p-id="9829"></path><path d="M640 341.312h42.688V384H640z" fill="#FFFFFF" p-id="9830"></path><path d="M640 384h42.688v42.688H640zM640 426.688h42.688v42.688H640z" fill="#FFE37C" p-id="9831"></path><path d="M640 469.312h42.688V512H640zM640 512h42.688v42.688H640zM640 554.688h42.688v42.688H640z" fill="#FFE37C" p-id="9832"></path><path d="M640 597.312h42.688V640H640zM640 640h42.688v42.688H640zM682.688 341.312h42.688V384h-42.688z" fill="#FFE37C" p-id="9833"></path><path d="M640 682.688h42.688v42.688H640z" fill="#F7AF00" p-id="9834"></path><path d="M256 469.312h42.688V512H256zM341.312 469.312H384V512h-42.688zM469.312 469.312H512V512h-42.688zM256 512h42.688v42.688H256zM341.312 512H384v42.688h-42.688zM469.312 512H512v42.688h-42.688zM512 512h42.688v42.688H512zM554.688 469.312h42.688V512h-42.688zM256 554.688h42.688v42.688H256zM341.312 554.688H384v42.688h-42.688zM469.312 554.688H512v42.688h-42.688z" fill="#FFE37C" p-id="9835"></path><path d="M256 597.312h42.688V640H256z" fill="#F7AF00" p-id="9836"></path><path d="M341.312 597.312H384V640h-42.688zM384 597.312h42.688V640H384zM469.312 597.312H512V640h-42.688zM554.688 554.688h42.688v42.688h-42.688z" fill="#FFE37C" p-id="9837"></path><path d="M554.688 597.312h42.688V640h-42.688z" fill="#FFE37C" p-id="9838"></path><path d="M384 213.312h42.688V256H384zM426.688 213.312h42.688V256h-42.688z" p-id="9839"></path><path d="M469.312 213.312H512V256h-42.688zM341.312 256H384v42.688h-42.688zM43.072 299.392h42.688v42.688H43.072zM298.688 298.688h42.688v42.688h-42.688zM512 213.312h42.688V256H512zM554.688 213.312h42.688V256h-42.688z" p-id="9840"></path><path d="M597.312 213.312H640V256h-42.688zM640 256h42.688v42.688H640zM256.384 43.392h42.688v42.688h-42.688zM213.184 86.592h42.688v42.688h-42.688zM725.312 42.688H768v42.688h-42.688zM768 85.312h42.688V128H768zM682.688 298.688h42.688v42.688h-42.688zM938.688 298.688h42.688v42.688h-42.688zM768 384h42.688v42.688H768zM768 426.688h42.688v42.688H768z" p-id="9841"></path><path d="M768 469.312h42.688V512H768zM768 512h42.688v42.688H768zM725.312 640H768v42.688h-42.688zM768 554.688h42.688v42.688H768z" p-id="9842"></path><path d="M768 597.312h42.688V640H768zM682.688 682.688h42.688v42.688h-42.688zM938.688 682.688h42.688v42.688h-42.688zM213.312 384H256v42.688h-42.688zM213.312 426.688H256v42.688h-42.688z" p-id="9843"></path><path d="M213.312 469.312H256V512h-42.688zM213.312 512H256v42.688h-42.688zM213.312 554.688H256v42.688h-42.688z" p-id="9844"></path><path d="M213.312 597.312H256V640h-42.688zM256 640h42.688v42.688H256zM42.688 682.688h42.688v42.688H42.688zM298.688 682.688h42.688v42.688h-42.688z" p-id="9845"></path><path d="M42.688 725.312h42.688V768H42.688zM341.312 725.312H384V768h-42.688zM85.312 768H128v42.688h-42.688zM384 768h42.688v42.688H384zM426.688 768h42.688v42.688h-42.688z" p-id="9846"></path><path d="M469.312 768H512v42.688h-42.688zM512 768h42.688v42.688H512zM597.312 768H640v42.688h-42.688zM128 853.312h42.688V896H128zM170.688 896h42.688v42.688h-42.688z" p-id="9847"></path><path d="M213.312 896H256v42.688h-42.688zM256 938.688h42.688v42.688H256zM896 810.688h42.688v42.688H896zM725.312 938.688H768v42.688h-42.688zM768 896h42.688v42.688H768zM810.688 896h42.688v42.688h-42.688zM853.312 853.312H896V896h-42.688zM554.688 768h42.688v42.688h-42.688zM896 768h42.688v42.688H896zM938.688 725.312h42.688V768h-42.688zM299.072 0.768h42.688v42.688h-42.688zM341.76 0.768h42.688v42.688H341.76z" p-id="9848"></path><path d="M383.872 1.28h42.688v42.688h-42.688zM426.56 1.28h42.688v42.688h-42.688z" p-id="9849"></path><path d="M469.184 1.28h42.688v42.688h-42.688zM171.072 86.08h42.688v42.688h-42.688zM85.76 171.392h42.688v42.688H85.76zM85.76 214.08h42.688v42.688H85.76zM43.072 256.768h42.688v42.688H43.072z" p-id="9850"></path><path d="M128.384 128.768h42.688v42.688h-42.688zM0.384 342.08h42.688v42.688H0.384zM256 341.312h42.688V384H256z" p-id="9851"></path><path d="M0.384 384.768h42.688v42.688H0.384z" p-id="9852"></path><path d="M0.384 427.392h42.688v42.688H0.384zM0.384 470.08h42.688v42.688H0.384zM511.488 0.512h42.688v42.688h-42.688z" p-id="9853"></path><path d="M0 512.32h42.688v42.688H0zM554.112 0.512h42.688v42.688h-42.688zM596.8 0.512h42.688v42.688h-42.688zM640 0h42.688v42.688H640zM0 555.008h42.688v42.688H0z" p-id="9854"></path><path d="M0 597.312h42.688V640H0zM0 640h42.688v42.688H0zM682.688 0h42.688v42.688h-42.688zM725.312 341.312H768V384h-42.688zM853.312 128H896v42.688h-42.688zM896 170.688h42.688v42.688H896zM640 725.312h42.688V768H640zM810.688 85.312h42.688V128h-42.688z" p-id="9855"></path><path d="M896 213.312h42.688V256H896zM938.688 256h42.688v42.688h-42.688zM981.312 341.312H1024V384h-42.688zM981.312 384H1024v42.688h-42.688zM981.312 426.688H1024v42.688h-42.688z" p-id="9856"></path><path d="M981.312 469.312H1024V512h-42.688zM981.312 512H1024v42.688h-42.688zM981.312 554.688H1024v42.688h-42.688z" p-id="9857"></path><path d="M981.312 597.312H1024V640h-42.688zM981.312 640H1024v42.688h-42.688zM298.688 981.312h42.688V1024h-42.688z" p-id="9858"></path><path d="M341.312 981.312H384V1024h-42.688zM384 981.312h42.688V1024H384zM426.688 981.312h42.688V1024h-42.688z" p-id="9859"></path><path d="M469.312 981.312H512V1024h-42.688zM512 981.312h42.688V1024H512zM554.688 981.312h42.688V1024h-42.688z" p-id="9860"></path><path d="M597.312 981.312H640V1024h-42.688zM640 981.312h42.688V1024H640zM682.688 981.312h42.688V1024h-42.688zM85.312 810.688H128v42.688h-42.688z" p-id="9861"></path></svg>